<svg width="1200" height="800" viewBox="0 0 1200 800" fill="none" xmlns="http://www.w3.org/2000/svg">
  <defs>
    <linearGradient id="bg" x1="0" y1="0" x2="1200" y2="800" gradientUnits="userSpaceOnUse">
      <stop stop-color="#0B1220"/>
      <stop offset="1" stop-color="#0F2A3A"/>
    </linearGradient>
    <linearGradient id="accent" x1="220" y1="140" x2="980" y2="660" gradientUnits="userSpaceOnUse">
      <stop stop-color="#7C3AED" stop-opacity="0.95"/>
      <stop offset="1" stop-color="#22D3EE" stop-opacity="0.9"/>
    </linearGradient>
    <filter id="soft" x="-20%" y="-20%" width="140%" height="140%">
      <feGaussianBlur stdDeviation="18" result="blur"/>
      <feColorMatrix in="blur" type="matrix" values="
        1 0 0 0 0
        0 1 0 0 0
        0 0 1 0 0
        0 0 0 0.55 0"/>
      <feBlend in="SourceGraphic" mode="normal"/>
    </filter>
  </defs>

  <rect width="1200" height="800" rx="48" fill="url(#bg)"/>

  <g filter="url(#soft)">
    <path d="M240 220C240 191.49 263.49 168 292 168H908C936.51 168 960 191.49 960 220V512C960 540.51 936.51 564 908 564H488L360 654V564H292C263.49 564 240 540.51 240 512V220Z" fill="rgba(255,255,255,0.07)" stroke="rgba(255,255,255,0.14)" stroke-width="2"/>
    <path d="M320 272C320 257.64 331.64 246 346 246H854C868.36 246 880 257.64 880 272V468C880 482.36 868.36 494 854 494H346C331.64 494 320 482.36 320 468V272Z" fill="rgba(255,255,255,0.05)"/>
  </g>

  <circle cx="340" cy="286" r="8" fill="rgba(255,255,255,0.35)"/>
  <circle cx="366" cy="286" r="8" fill="rgba(255,255,255,0.22)"/>
  <circle cx="392" cy="286" r="8" fill="rgba(255,255,255,0.16)"/>

  <g>
    <path d="M356 346C356 334.954 364.954 326 376 326H598C609.046 326 618 334.954 618 346V386C618 397.046 609.046 406 598 406H430L392 438V406H376C364.954 406 356 397.046 356 386V346Z" fill="rgba(255,255,255,0.08)" stroke="rgba(255,255,255,0.12)"/>
    <path d="M640 364C640 352.954 648.954 344 660 344H820C831.046 344 840 352.954 840 364V404C840 415.046 831.046 424 820 424H660C648.954 424 640 415.046 640 404V364Z" fill="url(#accent)" opacity="0.55"/>
  </g>

  <text x="120" y="690" font-family="ui-sans-serif, system-ui, -apple-system, Segoe UI, Roboto, Helvetica, Arial" font-size="56" font-weight="700" fill="rgba(255,255,255,0.92)">
    Portfolio RAG Chatbot
  </text>
  <text x="120" y="740" font-family="ui-sans-serif, system-ui, -apple-system, Segoe UI, Roboto, Helvetica, Arial" font-size="22" font-weight="500" fill="rgba(255,255,255,0.70)">
    Grounded answers with citations (no hallucinations)
  </text>
</svg>

